<mxfile host="app.diagrams.net" modified="2023-01-03T05:56:42.674Z" agent="5.0 (X11)" etag="w7AXhd4cKkA9G4rjLgxd" version="20.5.3" type="github">
  <diagram id="AATlev8B3ye8RbhryOrD" name="Page-1">
    <mxGraphModel dx="1422" dy="1854" grid="1" gridSize="10" guides="1" tooltips="1" connect="1" arrows="1" fold="1" page="1" pageScale="1" pageWidth="850" pageHeight="1100" math="0" shadow="0">
      <root>
        <mxCell id="0" />
        <mxCell id="1" parent="0" />
        <mxCell id="UxXAKfBfFaziU6dD_f_P-16" style="edgeStyle=orthogonalEdgeStyle;rounded=0;orthogonalLoop=1;jettySize=auto;html=1;entryX=0.5;entryY=0;entryDx=0;entryDy=0;" edge="1" parent="1" source="UxXAKfBfFaziU6dD_f_P-1" target="UxXAKfBfFaziU6dD_f_P-2">
          <mxGeometry relative="1" as="geometry" />
        </mxCell>
        <mxCell id="UxXAKfBfFaziU6dD_f_P-1" value="user&#39;s message" style="rounded=1;whiteSpace=wrap;html=1;" vertex="1" parent="1">
          <mxGeometry x="310" y="-10" width="120" height="60" as="geometry" />
        </mxCell>
        <mxCell id="UxXAKfBfFaziU6dD_f_P-17" style="edgeStyle=orthogonalEdgeStyle;rounded=0;orthogonalLoop=1;jettySize=auto;html=1;entryX=0.5;entryY=0;entryDx=0;entryDy=0;" edge="1" parent="1" source="UxXAKfBfFaziU6dD_f_P-2" target="UxXAKfBfFaziU6dD_f_P-4">
          <mxGeometry relative="1" as="geometry" />
        </mxCell>
        <mxCell id="UxXAKfBfFaziU6dD_f_P-18" style="edgeStyle=orthogonalEdgeStyle;rounded=0;orthogonalLoop=1;jettySize=auto;html=1;" edge="1" parent="1" source="UxXAKfBfFaziU6dD_f_P-2" target="UxXAKfBfFaziU6dD_f_P-5">
          <mxGeometry relative="1" as="geometry" />
        </mxCell>
        <mxCell id="UxXAKfBfFaziU6dD_f_P-19" value="" style="edgeStyle=orthogonalEdgeStyle;rounded=0;orthogonalLoop=1;jettySize=auto;html=1;" edge="1" parent="1" source="UxXAKfBfFaziU6dD_f_P-2" target="UxXAKfBfFaziU6dD_f_P-6">
          <mxGeometry relative="1" as="geometry" />
        </mxCell>
        <mxCell id="UxXAKfBfFaziU6dD_f_P-20" style="edgeStyle=orthogonalEdgeStyle;rounded=0;orthogonalLoop=1;jettySize=auto;html=1;" edge="1" parent="1" source="UxXAKfBfFaziU6dD_f_P-2" target="UxXAKfBfFaziU6dD_f_P-7">
          <mxGeometry relative="1" as="geometry" />
        </mxCell>
        <mxCell id="UxXAKfBfFaziU6dD_f_P-2" value="tokenizer and stemmer" style="rounded=1;whiteSpace=wrap;html=1;" vertex="1" parent="1">
          <mxGeometry x="310" y="100" width="120" height="60" as="geometry" />
        </mxCell>
        <mxCell id="UxXAKfBfFaziU6dD_f_P-50" style="edgeStyle=orthogonalEdgeStyle;rounded=0;orthogonalLoop=1;jettySize=auto;html=1;" edge="1" parent="1" source="UxXAKfBfFaziU6dD_f_P-4" target="UxXAKfBfFaziU6dD_f_P-47">
          <mxGeometry relative="1" as="geometry" />
        </mxCell>
        <mxCell id="UxXAKfBfFaziU6dD_f_P-4" value="word 1" style="rounded=1;whiteSpace=wrap;html=1;" vertex="1" parent="1">
          <mxGeometry x="70" y="210" width="120" height="60" as="geometry" />
        </mxCell>
        <mxCell id="UxXAKfBfFaziU6dD_f_P-51" style="edgeStyle=orthogonalEdgeStyle;rounded=0;orthogonalLoop=1;jettySize=auto;html=1;" edge="1" parent="1" source="UxXAKfBfFaziU6dD_f_P-5" target="UxXAKfBfFaziU6dD_f_P-47">
          <mxGeometry relative="1" as="geometry" />
        </mxCell>
        <mxCell id="UxXAKfBfFaziU6dD_f_P-5" value="word 2" style="rounded=1;whiteSpace=wrap;html=1;" vertex="1" parent="1">
          <mxGeometry x="230" y="210" width="120" height="60" as="geometry" />
        </mxCell>
        <mxCell id="UxXAKfBfFaziU6dD_f_P-53" style="edgeStyle=orthogonalEdgeStyle;rounded=0;orthogonalLoop=1;jettySize=auto;html=1;entryX=0.5;entryY=0;entryDx=0;entryDy=0;" edge="1" parent="1" source="UxXAKfBfFaziU6dD_f_P-6" target="UxXAKfBfFaziU6dD_f_P-47">
          <mxGeometry relative="1" as="geometry" />
        </mxCell>
        <mxCell id="UxXAKfBfFaziU6dD_f_P-6" value="word 3" style="rounded=1;whiteSpace=wrap;html=1;" vertex="1" parent="1">
          <mxGeometry x="390" y="210" width="120" height="60" as="geometry" />
        </mxCell>
        <mxCell id="UxXAKfBfFaziU6dD_f_P-54" style="edgeStyle=orthogonalEdgeStyle;rounded=0;orthogonalLoop=1;jettySize=auto;html=1;" edge="1" parent="1" source="UxXAKfBfFaziU6dD_f_P-7" target="UxXAKfBfFaziU6dD_f_P-47">
          <mxGeometry relative="1" as="geometry" />
        </mxCell>
        <mxCell id="UxXAKfBfFaziU6dD_f_P-7" value="word 4" style="rounded=1;whiteSpace=wrap;html=1;" vertex="1" parent="1">
          <mxGeometry x="550" y="210" width="120" height="60" as="geometry" />
        </mxCell>
        <mxCell id="UxXAKfBfFaziU6dD_f_P-47" value="calculate scores based on pre-defined keywords for each intention." style="rounded=1;whiteSpace=wrap;html=1;" vertex="1" parent="1">
          <mxGeometry x="70" y="320" width="600" height="60" as="geometry" />
        </mxCell>
        <mxCell id="UxXAKfBfFaziU6dD_f_P-55" value="" style="rounded=1;whiteSpace=wrap;html=1;" vertex="1" parent="1">
          <mxGeometry x="310" y="430" width="120" height="60" as="geometry" />
        </mxCell>
      </root>
    </mxGraphModel>
  </diagram>
</mxfile>
